<svg width="733" height="412" viewBox="0 0 733 412" fill="none" xmlns="http://www.w3.org/2000/svg">
<mask id="mask0_3971_9717" style="mask-type:alpha" maskUnits="userSpaceOnUse" x="168" y="50" width="405" height="300">
<g clip-path="url(#clip0_3971_9717)">
<rect width="405" height="300" transform="translate(168 50)" fill="white"/>
<g clip-path="url(#clip1_3971_9717)">
<path d="M513.008 55.9443H-0.629883C-0.895099 55.9443 -1.14945 55.839 -1.33699 55.6514C-1.52453 55.4639 -1.62988 55.2096 -1.62988 54.9443C-1.62988 54.6791 -1.52453 54.4248 -1.33699 54.2372C-1.14945 54.0497 -0.895099 53.9443 -0.629883 53.9443H513.008C513.273 53.9443 513.527 54.0497 513.715 54.2372C513.902 54.4248 514.008 54.6791 514.008 54.9443C514.008 55.2096 513.902 55.4639 513.715 55.6514C513.527 55.839 513.273 55.9443 513.008 55.9443Z" fill="#E6E6E6"/>
<path d="M513.008 95.9443H-0.629883C-0.895099 95.9443 -1.14945 95.839 -1.33699 95.6514C-1.52453 95.4639 -1.62988 95.2096 -1.62988 94.9443C-1.62988 94.6791 -1.52453 94.4247 -1.33699 94.2372C-1.14945 94.0497 -0.895099 93.9443 -0.629883 93.9443H513.008C513.273 93.9443 513.527 94.0497 513.715 94.2372C513.902 94.4247 514.008 94.6791 514.008 94.9443C514.008 95.2096 513.902 95.4639 513.715 95.6514C513.527 95.839 513.273 95.9443 513.008 95.9443Z" fill="#E6E6E6"/>
<path d="M513.008 135.944H-0.629883C-0.895099 135.944 -1.14945 135.839 -1.33699 135.651C-1.52453 135.464 -1.62988 135.21 -1.62988 134.944C-1.62988 134.679 -1.52453 134.425 -1.33699 134.237C-1.14945 134.05 -0.895099 133.944 -0.629883 133.944H513.008C513.273 133.944 513.527 134.05 513.715 134.237C513.902 134.425 514.008 134.679 514.008 134.944C514.008 135.21 513.902 135.464 513.715 135.651C513.527 135.839 513.273 135.944 513.008 135.944Z" fill="#E6E6E6"/>
<path d="M513.008 175.944H-0.629883C-0.895099 175.944 -1.14945 175.839 -1.33699 175.651C-1.52453 175.464 -1.62988 175.21 -1.62988 174.944C-1.62988 174.679 -1.52453 174.425 -1.33699 174.237C-1.14945 174.05 -0.895099 173.944 -0.629883 173.944H513.008C513.273 173.944 513.527 174.05 513.715 174.237C513.902 174.425 514.008 174.679 514.008 174.944C514.008 175.21 513.902 175.464 513.715 175.651C513.527 175.839 513.273 175.944 513.008 175.944Z" fill="#E6E6E6"/>
<path d="M513.008 215.944H-0.629883C-0.895099 215.944 -1.14945 215.839 -1.33699 215.651C-1.52453 215.464 -1.62988 215.21 -1.62988 214.944C-1.62988 214.679 -1.52453 214.425 -1.33699 214.237C-1.14945 214.05 -0.895099 213.944 -0.629883 213.944H513.008C513.273 213.944 513.527 214.05 513.715 214.237C513.902 214.425 514.008 214.679 514.008 214.944C514.008 215.21 513.902 215.464 513.715 215.651C513.527 215.839 513.273 215.944 513.008 215.944Z" fill="#E6E6E6"/>
<path d="M260 217.5C259.736 217.5 259.482 217.395 259.295 217.209C259.108 217.023 259.002 216.77 259 216.506L258 54.5063C257.998 54.2411 258.102 53.9861 258.288 53.7974C258.475 53.6087 258.728 53.5017 258.994 53.5H259C259.264 53.5001 259.517 53.6046 259.705 53.7907C259.892 53.9769 259.998 54.2296 260 54.4937L261 216.494C261.002 216.759 260.898 217.014 260.711 217.203C260.525 217.391 260.271 217.498 260.006 217.5H260Z" fill="#E6E6E6"/>
<path d="M399 217.5C398.736 217.5 398.482 217.395 398.295 217.209C398.108 217.023 398.002 216.77 398 216.506L397 54.5063C396.998 54.2411 397.102 53.9861 397.288 53.7974C397.475 53.6087 397.728 53.5017 397.994 53.5H398C398.264 53.5001 398.517 53.6046 398.705 53.7907C398.892 53.9769 398.998 54.2296 399 54.4937L400 216.494C400.002 216.759 399.898 217.014 399.711 217.203C399.525 217.391 399.271 217.498 399.006 217.5H399Z" fill="#E6E6E6"/>
<path d="M209.054 125.5H170.946C168.043 125.5 165.259 124.347 163.206 122.294C161.153 120.241 160 117.457 160 114.554C160 111.651 161.153 108.867 163.206 106.814C165.259 104.761 168.043 103.608 170.946 103.608H209.054C210.492 103.607 211.917 103.889 213.246 104.438C214.575 104.988 215.783 105.794 216.801 106.81C217.818 107.827 218.625 109.034 219.176 110.363C219.727 111.692 220.01 113.116 220.01 114.554C220.01 115.992 219.727 117.417 219.176 118.745C218.625 120.074 217.818 121.281 216.801 122.298C215.783 123.314 214.575 124.12 213.246 124.67C211.917 125.219 210.492 125.501 209.054 125.5Z" fill="#00A380"/>
<path d="M209.054 168.5H170.946C169.508 168.501 168.083 168.219 166.754 167.67C165.425 167.12 164.217 166.314 163.199 165.298C162.182 164.281 161.374 163.074 160.824 161.745C160.273 160.417 159.99 158.992 159.99 157.554C159.99 156.116 160.273 154.692 160.824 153.363C161.374 152.034 162.182 150.827 163.199 149.81C164.217 148.794 165.425 147.988 166.754 147.438C168.083 146.889 169.508 146.607 170.946 146.608H209.054C210.492 146.607 211.917 146.889 213.246 147.438C214.575 147.988 215.783 148.794 216.801 149.81C217.818 150.827 218.625 152.034 219.176 153.363C219.727 154.692 220.01 156.116 220.01 157.554C220.01 158.992 219.727 160.417 219.176 161.745C218.625 163.074 217.818 164.281 216.801 165.298C215.783 166.314 214.575 167.12 213.246 167.67C211.917 168.219 210.492 168.501 209.054 168.5Z" fill="#00A380"/>
<path d="M351.054 87.5H312.946C310.043 87.5 307.259 86.3468 305.206 84.294C303.153 82.2413 302 79.4571 302 76.5541C302 73.651 303.153 70.8669 305.206 68.8142C307.259 66.7614 310.043 65.6082 312.946 65.6082H351.054C352.492 65.6068 353.917 65.8889 355.246 66.4384C356.575 66.9878 357.783 67.7939 358.801 68.8104C359.818 69.827 360.625 71.0341 361.176 72.3628C361.727 73.6915 362.01 75.1158 362.01 76.5541C362.01 77.9924 361.727 79.4166 361.176 80.7453C360.625 82.074 359.818 83.2812 358.801 84.2977C357.783 85.3143 356.575 86.1204 355.246 86.6698C353.917 87.2193 352.492 87.5014 351.054 87.5Z" fill="#00A380"/>
<path d="M567.054 289.5H528.946C526.043 289.5 523.259 288.347 521.206 286.294C519.153 284.241 518 281.457 518 278.554C518 275.651 519.153 272.867 521.206 270.814C523.259 268.761 526.043 267.608 528.946 267.608H567.054C569.957 267.608 572.741 268.761 574.794 270.814C576.847 272.867 578 275.651 578 278.554C578 281.457 576.847 284.241 574.794 286.294C572.741 288.347 569.957 289.5 567.054 289.5V289.5Z" fill="#00A380"/>
<path d="M561.135 276.036C562.404 275.484 563.536 274.66 564.452 273.622C565.368 272.585 566.046 271.359 566.437 270.031C566.828 268.704 566.924 267.307 566.716 265.938C566.509 264.57 566.004 263.263 565.238 262.111L585.589 235.322L568.145 234.157L551.494 259.775C549.643 261.192 548.377 263.238 547.934 265.525C547.491 267.813 547.903 270.184 549.092 272.188C550.28 274.192 552.162 275.691 554.382 276.4C556.602 277.109 559.004 276.98 561.135 276.036V276.036Z" fill="#FFB8B8"/>
<path d="M618.774 132.079L615.388 130.763L612.119 131.918C612.119 131.918 601.896 141.66 600.185 151.874C599.419 156.444 587.507 201.129 587.507 201.129L555.772 249.799L572.942 261.267L616.709 195.689L618.774 132.079Z" fill="#E6E6E6"/>
</g>
</g>
</mask>
<g mask="url(#mask0_3971_9717)">
</g>
<g clip-path="url(#clip2_3971_9717)">
<path d="M330.782 112.213H329.343V72.8071C329.343 69.8121 328.754 66.8463 327.607 64.0792C326.461 61.3121 324.781 58.7979 322.663 56.6801C320.546 54.5622 318.031 52.8823 315.264 51.7361C312.497 50.5899 309.531 50 306.536 50H223.049C217.001 50 211.2 52.4029 206.922 56.68C202.645 60.9572 200.242 66.7582 200.242 72.8071V288.991C200.242 291.986 200.832 294.952 201.978 297.719C203.125 300.486 204.805 303.001 206.922 305.118C209.04 307.236 211.554 308.916 214.321 310.062C217.089 311.209 220.054 311.798 223.049 311.798H306.536C312.585 311.798 318.386 309.396 322.663 305.118C326.941 300.841 329.343 295.04 329.343 288.991V140.263H330.782V112.213Z" fill="#3F3D56"/>
<path d="M307.456 55.9336H296.559C297.06 57.1623 297.251 58.4954 297.116 59.8154C296.98 61.1354 296.522 62.4019 295.782 63.5033C295.042 64.6046 294.042 65.5071 292.871 66.1311C291.7 66.7551 290.394 67.0815 289.067 67.0816H241.238C239.911 67.0815 238.605 66.7551 237.433 66.1311C236.262 65.5071 235.263 64.6046 234.523 63.5033C233.782 62.4019 233.324 61.1354 233.189 59.8154C233.054 58.4954 233.245 57.1623 233.746 55.9336H223.568C221.331 55.9336 219.116 56.3741 217.05 57.2301C214.983 58.086 213.106 59.3406 211.524 60.9222C209.942 62.5037 208.688 64.3813 207.832 66.4478C206.976 68.5142 206.535 70.729 206.535 72.9657V288.833C206.535 291.069 206.976 293.284 207.832 295.351C208.688 297.417 209.942 299.295 211.524 300.876C213.106 302.458 214.983 303.712 217.05 304.568C219.116 305.424 221.331 305.865 223.567 305.865H307.456C309.693 305.865 311.908 305.424 313.974 304.568C316.041 303.712 317.918 302.458 319.5 300.876C321.082 299.295 322.336 297.417 323.192 295.351C324.048 293.284 324.489 291.069 324.489 288.833V72.9657C324.489 70.729 324.048 68.5142 323.192 66.4478C322.336 64.3813 321.082 62.5037 319.5 60.9222C317.918 59.3406 316.041 58.086 313.974 57.2301C311.908 56.3741 309.693 55.9336 307.456 55.9336Z" fill="white"/>
<path d="M357.541 311.836H173.483C173.355 311.836 173.232 311.785 173.141 311.694C173.051 311.604 173 311.481 173 311.353C173 311.225 173.051 311.102 173.141 311.011C173.232 310.921 173.355 310.87 173.483 310.87H357.541C357.669 310.87 357.792 310.921 357.883 311.011C357.973 311.102 358.024 311.225 358.024 311.353C358.024 311.481 357.973 311.604 357.883 311.694C357.792 311.785 357.669 311.836 357.541 311.836Z" fill="#CBCBCB"/>
<path d="M265.512 216.995C288.043 216.995 306.307 198.73 306.307 176.2C306.307 153.669 288.043 135.405 265.512 135.405C242.981 135.405 224.717 153.669 224.717 176.2C224.717 198.73 242.981 216.995 265.512 216.995Z" fill="#00A380"/>
<path d="M261.47 191.762C260.552 191.764 259.658 191.467 258.924 190.916L258.879 190.882L249.291 183.548C248.847 183.208 248.474 182.783 248.195 182.299C247.915 181.814 247.733 181.279 247.659 180.725C247.586 180.17 247.623 179.606 247.767 179.066C247.912 178.525 248.162 178.018 248.502 177.574C248.843 177.13 249.267 176.758 249.752 176.478C250.236 176.198 250.771 176.016 251.325 175.943C251.88 175.87 252.444 175.906 252.984 176.051C253.525 176.195 254.032 176.445 254.476 176.785L260.686 181.547L275.36 162.403C275.7 161.959 276.125 161.587 276.609 161.307C277.093 161.027 277.628 160.845 278.182 160.772C278.737 160.699 279.3 160.735 279.84 160.88C280.381 161.025 280.887 161.274 281.331 161.614L281.332 161.615L281.241 161.742L281.335 161.615C282.23 162.303 282.816 163.319 282.964 164.438C283.111 165.558 282.809 166.691 282.123 167.587L264.862 190.096C264.463 190.614 263.949 191.034 263.362 191.322C262.774 191.61 262.128 191.759 261.473 191.757L261.47 191.762Z" fill="white"/>
<path d="M508.384 315.846C508.88 315.043 509.465 314.299 510.126 313.626C510.399 313.343 510.686 313.076 510.983 312.817C512.787 311.212 514.986 310.115 517.353 309.642C519.721 309.168 522.173 309.333 524.455 310.12C526.738 310.908 528.77 312.289 530.342 314.122C531.914 315.955 532.969 318.174 533.399 320.55C535.392 313.182 530.205 305.924 524.991 300.349C519.774 294.776 513.81 288.663 513.84 281.026C513.855 276.777 515.934 272.986 519.072 270.176C519.169 270.091 519.266 270.006 519.364 269.924C523.158 266.672 528.038 264.972 533.03 265.161C542.305 265.658 550.403 271.892 556.027 279.286C565.08 291.183 569.047 307.883 562.709 321.426C557.135 333.338 545.246 340.411 533.113 346.097C531.418 346.892 529.728 347.662 528.04 348.408C528.029 348.411 528.017 348.419 528.005 348.422C527.924 348.458 527.843 348.493 527.767 348.53C527.419 348.684 527.07 348.838 526.725 348.989L526.885 349.094L527.384 349.417C527.211 349.312 527.04 349.21 526.867 349.106C526.815 349.074 526.761 349.044 526.709 349.012C520.75 345.437 514.708 341.654 510.591 336.071C506.321 330.275 504.604 321.973 508.384 315.846Z" fill="#F1F1F1"/>
<path d="M548.144 302.385C549.464 305.387 550.338 308.565 550.741 311.819C551.057 314.721 550.938 317.654 550.388 320.521C549.204 326.412 546.623 331.933 542.862 336.619C540.025 340.177 536.749 343.361 533.113 346.097C531.419 346.891 529.728 347.662 528.04 348.408C528.029 348.411 528.017 348.419 528.005 348.422C527.924 348.458 527.843 348.493 527.767 348.53C527.419 348.684 527.07 348.837 526.725 348.989L526.885 349.094L527.384 349.417C527.211 349.312 527.04 349.21 526.867 349.106C526.815 349.074 526.761 349.044 526.71 349.012C528.021 344.425 528.214 339.59 527.272 334.913C526.33 330.235 524.28 325.852 521.295 322.13C518.294 318.455 514.467 315.541 510.126 313.626C510.399 313.343 510.686 313.076 510.983 312.817C512.655 313.585 514.256 314.499 515.767 315.549C521.172 319.284 525.23 324.661 527.341 330.882C529.226 336.526 529.462 342.591 528.02 348.364C528.319 348.169 528.619 347.968 528.911 347.768C534.463 344.025 539.58 339.528 543.434 334.014C546.758 329.354 548.885 323.949 549.628 318.273C550.366 312.073 548.815 305.976 546.047 300.444C542.99 294.526 539.139 289.053 534.6 284.179C530.04 279.169 524.885 274.737 519.249 270.98C519.122 270.894 519.033 270.763 519 270.613C518.967 270.464 518.993 270.307 519.072 270.176C519.132 270.057 519.237 269.966 519.364 269.924C519.429 269.907 519.496 269.905 519.561 269.919C519.627 269.932 519.688 269.96 519.741 270C520.437 270.464 521.127 270.932 521.808 271.415C527.484 275.434 532.639 280.142 537.154 285.432C541.516 290.531 545.487 296.196 548.144 302.385Z" fill="white"/>
<path d="M426.643 68.9423C431.428 68.9423 435.307 65.0634 435.307 60.2785C435.307 55.4937 431.428 51.6147 426.643 51.6147C421.858 51.6147 417.979 55.4937 417.979 60.2785C417.979 65.0634 421.858 68.9423 426.643 68.9423Z" fill="#F1F1F1"/>
<path d="M534.373 184.884C537.29 184.884 539.655 182.519 539.655 179.602C539.655 176.685 537.29 174.32 534.373 174.32C531.456 174.32 529.091 176.685 529.091 179.602C529.091 182.519 531.456 184.884 534.373 184.884Z" fill="#F1F1F1"/>
<path d="M379.783 199.377C382.701 199.377 385.066 197.012 385.066 194.095C385.066 191.177 382.701 188.812 379.783 188.812C376.866 188.812 374.501 191.177 374.501 194.095C374.501 197.012 376.866 199.377 379.783 199.377Z" fill="#F1F1F1"/>
<path d="M382.766 350H566.824C566.952 350 567.075 349.949 567.165 349.858C567.256 349.768 567.307 349.645 567.307 349.517C567.307 349.389 567.256 349.266 567.165 349.175C567.075 349.085 566.952 349.034 566.824 349.034H382.766C382.638 349.034 382.515 349.085 382.424 349.175C382.334 349.266 382.283 349.389 382.283 349.517C382.283 349.645 382.334 349.768 382.424 349.858C382.515 349.949 382.638 350 382.766 350Z" fill="#CBCBCB"/>
<path d="M546.512 96.6834C546.754 94.9676 546.357 93.2226 545.399 91.7793C544.44 90.336 542.985 89.2945 541.309 88.8523C539.634 88.4101 537.854 88.5978 536.308 89.38C534.762 90.1621 533.556 91.4842 532.919 93.0959L517.984 110.219L522.366 122.459L537.387 102.451C538.367 102.765 539.404 102.861 540.425 102.73C541.446 102.6 542.426 102.248 543.296 101.698C544.166 101.148 544.905 100.414 545.46 99.5476C546.016 98.6812 546.375 97.7035 546.512 96.6834Z" fill="#FFB7B7"/>
<path d="M484.6 163.309L534.18 110.396L527.492 99.7644L465.307 152.356L484.6 163.309Z" fill="#3F3D56"/>
<path d="M473.535 131.159C483.14 131.159 490.926 123.373 490.926 113.768C490.926 104.163 483.14 96.3767 473.535 96.3767C463.93 96.3767 456.144 104.163 456.144 113.768C456.144 123.373 463.93 131.159 473.535 131.159Z" fill="#2F2E41"/>
<path d="M474.933 103.944C478.675 100.149 483.204 97.2203 488.2 95.3645C491.407 94.1763 494.898 93.4423 498.251 94.117C501.604 94.7917 504.775 97.1113 505.71 100.401C506.475 103.091 505.685 105.987 504.498 108.52C503.311 111.052 501.726 113.4 500.766 116.027C499.787 118.707 499.492 121.589 499.91 124.412C500.327 127.235 501.442 129.909 503.155 132.192C504.867 134.474 507.123 136.293 509.717 137.482C512.311 138.672 515.16 139.195 518.008 139.004C514.713 139.445 511.677 140.994 508.456 141.818C505.236 142.642 501.436 142.586 499.043 140.279C496.511 137.838 496.46 133.87 496.583 130.355C496.765 125.13 496.947 119.906 497.129 114.681C497.221 112.017 497.301 109.267 496.34 106.78C495.379 104.293 493.095 102.115 490.429 102.138C488.409 102.155 486.62 103.379 485 104.586C483.38 105.793 481.665 107.081 479.652 107.261C477.639 107.44 475.341 105.951 475.492 103.936L474.933 103.944Z" fill="#2F2E41"/>
<path d="M407.482 230.542C405.812 231.006 404.03 230.841 402.474 230.079C400.918 229.317 399.695 228.011 399.038 226.408C398.381 224.804 398.334 223.015 398.908 221.38C399.481 219.745 400.634 218.377 402.149 217.535L417.173 200.49L429.881 203.235L412.008 220.742C412.447 221.672 412.677 222.688 412.681 223.717C412.686 224.747 412.464 225.764 412.033 226.699C411.601 227.633 410.97 228.462 410.184 229.126C409.398 229.79 408.475 230.273 407.482 230.542H407.482Z" fill="#FFB7B7"/>
<path d="M456.912 169.519L419.465 216.524L408.051 211.284L452.065 142.76L456.912 169.519Z" fill="#3F3D56"/>
<path d="M427.033 311.455L418.108 311.314L419.182 341.733H427.031L427.033 311.455Z" fill="#FFB7B7"/>
<path d="M429.034 339.17L413.574 339.169H413.574C410.961 339.17 408.455 340.208 406.607 342.055C404.76 343.903 403.722 346.408 403.722 349.021V349.341L429.033 349.342L429.034 339.17Z" fill="#2F2E41"/>
<path d="M486.123 303.387L476.374 309.646L495.875 333.107L502.481 328.866L486.123 303.387Z" fill="#FFB7B7"/>
<path d="M502.781 325.627L489.772 333.979L489.772 333.98C487.573 335.392 486.025 337.619 485.469 340.172C484.912 342.725 485.393 345.394 486.804 347.593L486.977 347.862L508.277 334.187L502.781 325.627Z" fill="#2F2E41"/>
<path d="M489.596 210.502C489.596 210.502 467.935 138.557 460.973 137.585C454.012 136.612 442.795 156.045 442.795 156.045C428.253 174.6 413.257 234.702 413.257 234.702C413.257 234.702 438.256 236.267 456.529 245.989C474.803 255.712 496.369 245.497 496.369 245.497L489.596 210.502Z" fill="#3F3D56"/>
<path opacity="0.1" d="M489.596 210.502C489.596 210.502 467.935 138.557 460.973 137.585C454.012 136.612 445.644 156.242 445.644 156.242C438.398 186.194 413.257 234.702 413.257 234.702C413.257 234.702 438.256 236.267 456.529 245.989C474.803 255.711 496.369 245.497 496.369 245.497L489.596 210.502Z" fill="black"/>
<path d="M471.825 188.977V225.129L476.079 277.498L497.335 317.111L487.19 324.358L458.205 286.677L446.741 249.262L428.736 332.087L415.21 331.121L424.604 216.285L442.43 183.961L471.825 188.977Z" fill="#2F2E41"/>
<path d="M449.984 154.01C443.221 160.773 449.501 168.019 449.501 168.019L441.772 185.411L472.207 193.623L482.842 146.097L475.596 138.368C461.103 137.885 461.095 137.584 461.095 137.584C458.556 140.069 449.984 154.01 449.984 154.01Z" fill="#00A380"/>
<path d="M484.068 141.174C482.686 140.153 481.115 139.417 479.446 139.008C477.777 138.6 476.044 138.526 474.347 138.791C472.649 139.057 471.021 139.657 469.558 140.556C468.094 141.455 466.823 142.636 465.818 144.03C458.167 154.683 451.092 171.886 460.84 193.34C476.492 227.789 490.112 245.425 495.649 245.423C495.891 245.425 496.132 245.387 496.361 245.311C499.769 244.155 504.697 238.387 505.589 233.305C505.909 231.486 505.833 228.952 503.657 227.212C497.408 222.214 486.19 206.651 482.69 186.166C480.756 174.848 484.507 164.538 487.993 157.882C489.466 155.128 489.897 151.935 489.207 148.889C488.517 145.843 486.752 143.148 484.236 141.297V141.297L484.068 141.174Z" fill="#3F3D56"/>
<path d="M474.43 129.451C480.633 126.06 482.913 118.281 479.522 112.077C476.131 105.873 468.352 103.593 462.148 106.985C455.944 110.376 453.664 118.155 457.056 124.358C460.447 130.562 468.226 132.842 474.43 129.451Z" fill="#FFB7B7"/>
<path d="M450.285 117.25H468.771L468.96 114.596L469.908 117.25H472.755L473.13 111.99L475.009 117.25H480.516V116.989C480.512 113.327 479.056 109.816 476.466 107.227C473.877 104.637 470.366 103.181 466.704 103.177H464.098C460.435 103.181 456.925 104.637 454.335 107.227C451.746 109.816 450.289 113.327 450.285 116.989V117.25Z" fill="#2F2E41"/>
<path d="M477.724 126.79L485.612 124.23V105.073H470.712L471.081 105.441C476.213 110.567 481.922 128.753 477.724 126.79Z" fill="#2F2E41"/>
</g>
<defs>
<clipPath id="clip0_3971_9717">
<rect width="405" height="300" fill="white" transform="translate(168 50)"/>
</clipPath>
<clipPath id="clip1_3971_9717">
<rect width="840.77" height="511.63" fill="white" transform="translate(-4 -5)"/>
</clipPath>
<clipPath id="clip2_3971_9717">
<rect width="394.307" height="300" fill="white" transform="translate(173 50)"/>
</clipPath>
</defs>
</svg>
