<svg width="472" height="587" viewBox="0 0 472 587" fill="none" xmlns="http://www.w3.org/2000/svg">
<path d="M348.05 22.2356H134.812C119.85 22.2356 107.721 34.3643 107.721 49.3259V559.91C107.721 574.871 119.85 587 134.812 587H348.05C363.012 587 375.141 574.871 375.141 559.91V49.3259C375.141 34.3643 363.012 22.2356 348.05 22.2356Z" fill="#407BFF"/>
<path opacity="0.7" d="M348.05 22.2356H134.812C119.85 22.2356 107.721 34.3643 107.721 49.3259V559.91C107.721 574.871 119.85 587 134.812 587H348.05C363.012 587 375.141 574.871 375.141 559.91V49.3259C375.141 34.3643 363.012 22.2356 348.05 22.2356Z" fill="white"/>
<path d="M355.203 21.272H141.964C127.002 21.272 114.874 33.4007 114.874 48.3623V558.946C114.874 573.908 127.002 586.036 141.964 586.036H355.203C370.164 586.036 382.293 573.908 382.293 558.946V48.3623C382.293 33.4007 370.164 21.272 355.203 21.272Z" fill="#407BFF"/>
<path opacity="0.2" d="M355.203 21.272H141.964C127.002 21.272 114.874 33.4007 114.874 48.3623V558.946C114.874 573.908 127.002 586.036 141.964 586.036H355.203C370.164 586.036 382.293 573.908 382.293 558.946V48.3623C382.293 33.4007 370.164 21.272 355.203 21.272Z" fill="black"/>
<path d="M259.016 561.151C259.019 563.538 258.315 565.873 256.991 567.859C255.666 569.846 253.783 571.395 251.578 572.31C249.373 573.226 246.946 573.466 244.604 573.001C242.262 572.536 240.111 571.387 238.423 569.699C236.735 568.011 235.586 565.86 235.121 563.518C234.656 561.176 234.897 558.749 235.812 556.544C236.727 554.339 238.276 552.456 240.263 551.132C242.249 549.808 244.584 549.103 246.971 549.106C250.166 549.106 253.229 550.375 255.488 552.634C257.747 554.893 259.016 557.956 259.016 561.151Z" fill="#407BFF"/>
<path opacity="0.4" d="M259.016 561.151C259.019 563.538 258.315 565.873 256.991 567.859C255.666 569.846 253.783 571.395 251.578 572.31C249.373 573.226 246.946 573.466 244.604 573.001C242.262 572.536 240.111 571.387 238.423 569.699C236.735 568.011 235.586 565.86 235.121 563.518C234.656 561.176 234.897 558.749 235.812 556.544C236.727 554.339 238.276 552.456 240.263 551.132C242.249 549.808 244.584 549.103 246.971 549.106C250.166 549.106 253.229 550.375 255.488 552.634C257.747 554.893 259.016 557.956 259.016 561.151Z" fill="black"/>
<path d="M380.144 543.492H114.059V58.1643H381.997L380.144 543.492Z" fill="#407BFF"/>
<path opacity="0.8" d="M382.497 543.233L113.91 543.548V58.2013L382.256 57.9233L382.497 543.233Z" fill="white"/>
<path opacity="0.33" d="M93.8056 66.2991H91.9526V90.7952H93.8056V66.2991Z" fill="#407BFF"/>
<path opacity="0.33" d="M93.8056 97.5955H91.9526V105.267H93.8056V97.5955Z" fill="#407BFF"/>
<path d="M324.444 78.2505H139.87C129.698 78.2505 121.452 86.4967 121.452 96.6689V206.846C121.452 217.018 129.698 225.265 139.87 225.265H324.444C334.616 225.265 342.862 217.018 342.862 206.846V96.6689C342.862 86.4967 334.616 78.2505 324.444 78.2505Z" fill="white"/>
<path opacity="0.27" d="M164.825 134.835C177.316 129.612 183.209 115.252 177.986 102.761C172.764 90.2697 158.404 84.3773 145.912 89.6C133.421 94.8226 127.529 109.183 132.751 121.674C137.974 134.165 152.334 140.057 164.825 134.835Z" fill="#407BFF"/>
<path d="M175.614 112.215C175.629 115.583 174.787 118.898 173.168 121.851C170.817 126.187 166.963 129.516 162.33 131.21C157.698 132.905 152.606 132.848 148.012 131.052C143.418 129.256 139.638 125.844 137.383 121.457C135.128 117.069 134.553 112.01 135.767 107.229C136.981 102.447 139.899 98.2743 143.973 95.4938C148.048 92.7132 152.998 91.5168 157.892 92.1293C162.787 92.7419 167.289 95.1213 170.552 98.8201C173.816 102.519 175.616 107.283 175.614 112.215Z" fill="white"/>
<path opacity="0.27" d="M173.168 121.832C171.431 125.036 168.861 127.711 165.73 129.575C162.599 131.439 159.023 132.423 155.379 132.423C151.735 132.423 148.159 131.439 145.028 129.575C141.897 127.711 139.328 125.036 137.591 121.832C142.857 118.316 149.047 116.44 155.379 116.44C161.711 116.44 167.901 118.316 173.168 121.832Z" fill="#407BFF"/>
<path opacity="0.27" d="M155.379 114.272C160.353 114.272 164.385 110.24 164.385 105.267C164.385 100.293 160.353 96.2615 155.379 96.2615C150.406 96.2615 146.374 100.293 146.374 105.267C146.374 110.24 150.406 114.272 155.379 114.272Z" fill="#407BFF"/>
<path d="M329.28 238.847H135.034C127.533 238.847 121.452 244.928 121.452 252.429V276.721C121.452 284.222 127.533 290.303 135.034 290.303H329.28C336.781 290.303 342.862 284.222 342.862 276.721V252.429C342.862 244.928 336.781 238.847 329.28 238.847Z" fill="white"/>
<path opacity="0.6" d="M380.496 295.288L406.678 367.442C407.353 369.33 407.255 371.408 406.404 373.223C405.554 375.038 404.02 376.444 402.138 377.133L264.778 426.959C262.893 427.635 260.817 427.539 259.003 426.693C257.188 425.846 255.781 424.317 255.087 422.438L228.905 350.265C228.226 348.381 228.322 346.303 229.173 344.49C230.025 342.676 231.561 341.275 233.445 340.593L370.805 290.748C372.692 290.073 374.77 290.172 376.585 291.022C378.4 291.872 379.806 293.406 380.496 295.288Z" fill="#407BFF"/>
<path d="M376.345 290.915L337.081 355.528C333.445 361.519 327.87 366.088 321.282 368.477C314.694 370.866 307.487 370.933 300.855 368.665L229.294 344.243C230.156 342.525 231.64 341.2 233.445 340.537L370.805 290.693C372.614 290.066 374.592 290.145 376.345 290.915Z" fill="#407BFF"/>
<path opacity="0.5" d="M376.345 290.915L337.081 355.528C333.445 361.519 327.87 366.088 321.282 368.477C314.694 370.866 307.487 370.933 300.855 368.665L229.294 344.243C230.156 342.525 231.64 341.2 233.445 340.537L370.805 290.693C372.614 290.066 374.592 290.145 376.345 290.915Z" fill="white"/>
<path opacity="0.6" d="M337.415 419.307L336.155 484.309C336.116 486.004 335.408 487.616 334.187 488.793C332.965 489.969 331.328 490.615 329.632 490.59L205.873 488.181C205.033 488.165 204.205 487.983 203.436 487.646C202.667 487.309 201.972 486.823 201.39 486.218C200.808 485.612 200.352 484.898 200.046 484.116C199.741 483.333 199.593 482.499 199.61 481.659L200.851 416.657C200.874 415.778 201.074 414.913 201.44 414.113C201.806 413.314 202.331 412.597 202.982 412.006C204.188 410.928 205.757 410.346 207.374 410.376L331.133 412.766C332.832 412.805 334.446 413.515 335.623 414.74C336.8 415.966 337.444 417.608 337.415 419.307Z" fill="#407BFF"/>
<path d="M335.469 414.582L284.772 453.716C280.07 457.342 274.273 459.256 268.336 459.141C262.4 459.027 256.681 456.891 252.123 453.086L203.075 412.006C204.28 410.928 205.849 410.346 207.466 410.376L331.226 412.766C332.816 412.823 334.329 413.471 335.469 414.582Z" fill="#407BFF"/>
<path opacity="0.5" d="M335.469 414.582L284.772 453.716C280.07 457.342 274.273 459.256 268.336 459.141C262.4 459.027 256.681 456.891 252.123 453.086L203.075 412.006C204.28 410.928 205.849 410.346 207.466 410.376L331.226 412.766C332.816 412.823 334.329 413.471 335.469 414.582Z" fill="white"/>
<path d="M212.581 36.559C212.584 35.7168 212.837 34.8947 213.308 34.1963C213.778 33.4979 214.445 32.9545 215.224 32.6348C216.003 32.3151 216.86 32.2333 217.685 32.3998C218.511 32.5664 219.268 32.9737 219.862 33.5705C220.457 34.1672 220.861 34.9266 221.024 35.7528C221.187 36.579 221.101 37.435 220.778 38.2127C220.455 38.9903 219.909 39.6548 219.208 40.1223C218.508 40.5898 217.685 40.8393 216.842 40.8393C216.281 40.8393 215.725 40.7285 215.207 40.5131C214.689 40.2978 214.218 39.9822 213.822 39.5845C213.426 39.1868 213.113 38.7148 212.9 38.1956C212.687 37.6764 212.578 37.1202 212.581 36.559Z" fill="#407BFF"/>
<path d="M231.573 32.2971H266.983C268.112 32.302 269.193 32.7526 269.992 33.5508C270.79 34.3489 271.24 35.4301 271.245 36.5589C271.245 37.6909 270.797 38.7769 269.998 39.579C269.199 40.3812 268.115 40.8344 266.983 40.8393H231.573C230.441 40.8344 229.357 40.3812 228.559 39.579C227.76 38.7769 227.312 37.6909 227.312 36.5589C227.316 35.4301 227.767 34.3489 228.565 33.5508C229.363 32.7526 230.445 32.302 231.573 32.2971Z" fill="#407BFF"/>
<path opacity="0.4" d="M212.581 36.559C212.584 35.7168 212.837 34.8947 213.308 34.1963C213.778 33.4979 214.445 32.9545 215.224 32.6348C216.003 32.3151 216.86 32.2333 217.685 32.3998C218.511 32.5664 219.268 32.9737 219.862 33.5705C220.457 34.1672 220.861 34.9266 221.024 35.7528C221.187 36.579 221.101 37.435 220.778 38.2127C220.455 38.9903 219.909 39.6548 219.208 40.1223C218.508 40.5898 217.685 40.8393 216.842 40.8393C216.281 40.8393 215.725 40.7285 215.207 40.5131C214.689 40.2978 214.218 39.9822 213.822 39.5845C213.426 39.1868 213.113 38.7148 212.9 38.1956C212.687 37.6764 212.578 37.1202 212.581 36.559Z" fill="black"/>
<path opacity="0.4" d="M231.573 32.2971H266.983C268.112 32.302 269.193 32.7526 269.992 33.5508C270.79 34.3489 271.24 35.4301 271.245 36.5589C271.245 37.6909 270.797 38.7769 269.998 39.579C269.199 40.3812 268.115 40.8344 266.983 40.8393H231.573C230.441 40.8344 229.357 40.3812 228.559 39.579C227.76 38.7769 227.312 37.6909 227.312 36.5589C227.316 35.4301 227.767 34.3489 228.565 33.5508C229.363 32.7526 230.445 32.302 231.573 32.2971Z" fill="black"/>
<path d="M382.664 118.163H365.005C360.901 118.163 357.575 121.49 357.575 125.594V179.385C357.575 183.489 360.901 186.816 365.005 186.816H382.664C386.768 186.816 390.094 183.489 390.094 179.385V125.594C390.094 121.49 386.768 118.163 382.664 118.163Z" fill="#407BFF"/>
<path opacity="0.8" d="M382.664 118.163H365.005C360.901 118.163 357.575 121.49 357.575 125.594V179.385C357.575 183.489 360.901 186.816 365.005 186.816H382.664C386.768 186.816 390.094 183.489 390.094 179.385V125.594C390.094 121.49 386.768 118.163 382.664 118.163Z" fill="white"/>
<path d="M384.517 206.624H363.152C360.072 206.624 357.575 209.121 357.575 212.201V239.773C357.575 242.854 360.072 245.351 363.152 245.351H384.517C387.597 245.351 390.094 242.854 390.094 239.773V212.201C390.094 209.121 387.597 206.624 384.517 206.624Z" fill="#407BFF"/>
<path opacity="0.8" d="M384.517 206.624H363.152C360.072 206.624 357.575 209.121 357.575 212.201V239.773C357.575 242.854 360.072 245.351 363.152 245.351H384.517C387.597 245.351 390.094 242.854 390.094 239.773V212.201C390.094 209.121 387.597 206.624 384.517 206.624Z" fill="white"/>
<path d="M147.449 529.929L161.068 531.244L175.243 498.836L161.624 497.502L147.449 529.929Z" fill="#E4897B"/>
<path d="M9.19922 430.665L16.9631 442.432L46.7217 428.219L38.9393 416.435L9.19922 430.665Z" fill="#E4897B"/>
<path d="M175.243 498.836L167.943 515.55H153.73L161.606 497.502L175.243 498.836Z" fill="#CE6F64"/>
<path d="M38.9392 416.453L46.7031 428.219L31.3791 435.539L23.5967 423.772L38.9392 416.453Z" fill="#CE6F64"/>
<path d="M300.596 198.23L301.041 199.23L301.615 200.398C301.986 201.176 302.412 201.973 302.838 202.769C303.709 204.344 304.691 205.938 305.618 207.457C307.569 210.568 309.717 213.551 312.047 216.389C314.419 219.199 316.95 221.871 319.626 224.393C321.016 225.616 322.368 226.876 323.814 228.099L325.982 229.804L326.482 230.212C326.247 230.138 326.005 230.089 325.759 230.064C325.222 230.008 324.68 230.091 324.184 230.304C323.882 230.393 323.612 230.566 323.406 230.805C323.276 230.99 323.61 230.694 323.888 230.212C324.621 228.861 325.199 227.431 325.611 225.95C326.628 222.351 327.427 218.694 328.001 214.999C328.631 211.182 329.15 207.272 329.558 203.362C329.966 199.453 330.392 195.469 330.762 191.577L337.915 191.466C338.359 195.598 338.545 199.619 338.712 203.733C338.878 207.846 338.804 211.923 338.712 216.092C338.548 220.379 338.059 224.647 337.248 228.859C336.778 231.286 336.026 233.649 335.006 235.9C334.267 237.494 333.25 238.943 332.004 240.181C331.039 241.089 329.906 241.8 328.668 242.275C327.226 242.814 325.677 243.005 324.147 242.83C322.906 242.667 321.703 242.291 320.59 241.719C320.144 241.495 319.711 241.247 319.292 240.977L318.588 240.514L315.883 238.661C314.03 237.438 312.399 236.086 310.713 234.733C307.38 231.949 304.252 228.927 301.356 225.691C298.481 222.425 295.838 218.964 293.444 215.332C292.258 213.479 291.165 211.627 290.108 209.774C289.589 208.791 289.089 207.828 288.607 206.809L287.903 205.234C287.662 204.678 287.477 204.233 287.181 203.473L300.596 198.23Z" fill="#E4897B"/>
<path d="M306.859 207.81L294.407 224.987L299.558 230.045L312.807 214.11L306.859 207.81Z" fill="#F5F5F5"/>
<path d="M287.329 185.148C301.356 188.854 311.028 208.532 311.028 208.532L294.833 231.231C294.833 231.231 275.34 206.716 275.841 198.971C276.322 190.855 278.879 182.868 287.329 185.148Z" fill="#407BFF"/>
<path opacity="0.7" d="M287.329 185.148C301.356 188.854 311.028 208.532 311.028 208.532L294.833 231.231C294.833 231.231 275.34 206.716 275.841 198.971C276.322 190.855 278.879 182.868 287.329 185.148Z" fill="white"/>
<path d="M299.429 192.393C299.429 192.393 304.043 197.84 250.64 262.472L201.222 233.528C213.822 213.906 221.104 201.509 235.65 154.592C243.419 157.206 250.986 160.383 258.293 164.098C266.046 168.004 273.547 172.392 280.751 177.235C289.867 183.758 299.429 192.393 299.429 192.393Z" fill="#407BFF"/>
<path opacity="0.7" d="M299.429 192.393C299.429 192.393 304.043 197.84 250.64 262.472L201.222 233.528C213.822 213.906 221.104 201.509 235.65 154.592C243.419 157.206 250.986 160.383 258.293 164.098C266.046 168.004 273.547 172.392 280.751 177.235C289.867 183.758 299.429 192.393 299.429 192.393Z" fill="white"/>
<path d="M293.017 186.815C289.534 183.925 285.068 180.348 280.751 177.235C273.585 172.33 266.08 167.94 258.293 164.098C253.92 161.819 249.436 159.818 245.619 158.298C245.007 159.317 245.507 162.43 247.379 166.988C254.494 176.161 271.023 189.669 284.809 192.356C291.22 191.429 293.221 189.391 293.017 186.815Z" fill="#F5F5F5"/>
<path d="M247.379 166.989C251.531 176.242 257.06 184.813 263.778 192.411C270.771 193.11 277.816 193.11 284.809 192.411C271.023 189.669 254.494 176.161 247.379 166.989Z" fill="#F5F5F5"/>
<path d="M250.696 262.472C250.696 262.472 251.493 389.437 228.979 426.088C205.558 464.204 175.021 510.695 175.021 510.695L148.579 509.416C148.579 509.416 179.412 440.634 191.049 408.708C207.077 364.7 214.489 241.274 214.489 241.274L250.696 262.472Z" fill="#407BFF"/>
<path opacity="0.4" d="M250.696 262.472C250.696 262.472 251.493 389.437 228.979 426.088C205.558 464.204 175.021 510.695 175.021 510.695L148.579 509.416C148.579 509.416 179.412 440.634 191.049 408.708C207.077 364.7 214.489 241.274 214.489 241.274L250.696 262.472Z" fill="black"/>
<path opacity="0.2" d="M222.568 266.011C218.287 269.643 214.603 273.926 211.654 278.704C210.82 288.154 209.801 298.771 208.634 309.889C216.694 298.938 223.068 279.723 222.568 266.011Z" fill="black"/>
<path d="M237.632 254.893C237.632 254.893 181.691 334.311 146.837 377.189C118.672 411.746 37.1418 436.483 37.1418 436.483L27.1914 419.807C27.1914 419.807 92.0451 383.6 111.39 360.215C173.316 285.356 172.538 246.536 201.296 233.732L237.632 254.893Z" fill="#407BFF"/>
<path opacity="0.4" d="M237.632 254.893C237.632 254.893 181.691 334.311 146.837 377.189C118.672 411.746 37.1418 436.483 37.1418 436.483L27.1914 419.807C27.1914 419.807 92.0451 383.6 111.39 360.215C173.316 285.356 172.538 246.536 201.296 233.732L237.632 254.893Z" fill="black"/>
<path d="M330.929 193.319L327.223 178.495L341.361 182.609C341.361 182.609 340.972 192.578 336.08 195.821L330.929 193.319Z" fill="#E4897B"/>
<path d="M331.726 166.6L341.658 171.621L341.417 182.683L327.279 178.57L331.726 166.6Z" fill="#E4897B"/>
<path d="M154.12 172.047L141.149 164.08L154.12 157.149C154.12 157.149 160.772 164.561 159.549 170.305L154.12 172.047Z" fill="#E4897B"/>
<path d="M136.016 152.387L146.634 149.052L154.194 157.149L141.167 164.08L136.016 152.387Z" fill="#E4897B"/>
<path d="M20.2244 441.19L15.6105 426.033C15.5293 425.773 15.3572 425.552 15.1257 425.409C14.8943 425.266 14.619 425.211 14.3505 425.255L1.84302 427.108C1.52982 427.166 1.2326 427.291 0.970877 427.473C0.709149 427.655 0.488825 427.89 0.32435 428.163C0.159875 428.435 0.0549693 428.74 0.0165175 429.057C-0.0219342 429.373 0.00692856 429.694 0.101226 429.998C1.80595 435.242 2.88067 437.707 4.91893 444.359C6.16041 448.472 8.32838 457.718 10.0516 463.389C11.7749 469.059 17.4635 467.65 17.2597 465.13C16.3147 453.864 18.1676 448.102 20.0762 443.636C20.4015 442.861 20.4538 441.999 20.2244 441.19Z" fill="#263238"/>
<path d="M162.884 527.038H146.207C145.906 527.04 145.615 527.141 145.377 527.325C145.139 527.509 144.969 527.766 144.892 528.057L141.186 541.306C141.095 541.617 141.079 541.946 141.14 542.265C141.2 542.584 141.335 542.884 141.534 543.141C141.733 543.397 141.99 543.603 142.283 543.742C142.577 543.88 142.899 543.947 143.224 543.937C149.079 543.844 151.933 543.511 159.289 543.511C163.81 543.511 175.521 543.974 181.766 543.974C188.01 543.974 189.177 537.785 186.639 537.229C175.28 534.728 168.758 531.263 165.256 527.964C164.611 527.366 163.763 527.034 162.884 527.038Z" fill="#263238"/>
<path d="M202.204 230.193L197.386 233.325C197.015 233.566 197.219 234.159 197.794 234.492L249.677 264.825C250.121 265.085 250.622 265.085 250.807 264.825L253.846 260.656C254.05 260.359 253.846 259.878 253.327 259.6L203.297 230.304C203.143 230.185 202.96 230.112 202.766 230.092C202.573 230.073 202.378 230.108 202.204 230.193Z" fill="#263238"/>
<path d="M231.592 175.846C228.09 178.644 224.755 180.905 221.215 183.258C217.676 185.611 214.082 187.631 210.376 189.632C202.939 193.702 195.111 197.011 187.01 199.508C186.009 199.86 184.934 200.101 183.915 200.379C182.896 200.657 181.914 200.935 180.691 201.195C178.035 201.791 175.296 201.928 172.594 201.602C169.728 201.261 166.971 200.3 164.515 198.786C162.231 197.342 160.229 195.496 158.604 193.338C155.861 189.515 153.897 185.189 152.823 180.608C152.274 178.496 151.878 176.347 151.637 174.178C151.342 172.017 151.2 169.837 151.211 167.656L158.326 167.044C159.184 170.662 160.343 174.201 161.791 177.625C163.051 180.761 164.879 183.639 167.183 186.111C168.01 187.044 169.018 187.797 170.146 188.326C171.273 188.855 172.497 189.148 173.743 189.187C175.051 189.177 176.35 188.971 177.597 188.576C179.209 188.057 181.099 187.464 182.822 186.834C189.954 184.153 196.852 180.887 203.446 177.069C206.818 175.216 210.042 173.085 213.303 171.028C216.565 168.972 219.77 166.655 222.568 164.543L231.592 175.846Z" fill="#E4897B"/>
<path d="M208.671 170.991L215.082 190.373L221.104 186.76L215.471 167.545L208.671 170.991Z" fill="#F5F5F5"/>
<path d="M21.6513 449.139C21.3392 449.135 21.0333 449.052 20.7619 448.898C19.2239 447.972 18.7977 444.692 18.668 442.82C18.6671 442.756 18.6839 442.693 18.7166 442.637C18.7493 442.581 18.7966 442.536 18.8533 442.505C18.9102 442.475 18.9739 442.458 19.0386 442.458C19.1033 442.458 19.167 442.475 19.2239 442.505C19.6686 442.876 23.5598 446.211 23.319 447.953C23.2935 448.154 23.2147 448.344 23.0909 448.503C22.967 448.663 22.8026 448.786 22.6148 448.861C22.3206 449.03 21.9901 449.125 21.6513 449.139ZM19.4092 443.58C19.6501 446.082 20.2615 447.823 21.0954 448.324C21.2868 448.424 21.4999 448.477 21.7161 448.477C21.9324 448.477 22.1455 448.424 22.3369 448.324C22.5963 448.194 22.6519 448.046 22.6519 447.916C22.7816 446.971 20.9286 444.951 19.4092 443.58Z" fill="#407BFF"/>
<path d="M23.986 445.118C22.0836 444.956 20.2719 444.234 18.7792 443.043C18.7496 442.996 18.7339 442.941 18.7339 442.886C18.7339 442.83 18.7496 442.775 18.7792 442.728C18.7924 442.672 18.8198 442.621 18.8587 442.578C18.8977 442.536 18.9469 442.505 19.0016 442.487C19.1683 442.487 23.0595 441.264 24.8013 442.339C25.0216 442.469 25.2105 442.646 25.3546 442.857C25.4987 443.069 25.5945 443.309 25.6352 443.562C25.7104 443.817 25.6964 444.09 25.5953 444.336C25.4942 444.582 25.3121 444.786 25.0793 444.915C24.737 445.071 24.3616 445.141 23.986 445.118ZM19.7242 442.95C21.151 443.933 23.8007 444.803 24.6716 444.322C24.8013 444.322 24.9681 444.099 24.894 443.673C24.867 443.514 24.8048 443.364 24.7118 443.232C24.6188 443.101 24.4974 442.992 24.3566 442.913C22.8461 442.444 21.227 442.457 19.7242 442.95Z" fill="#407BFF"/>
<path d="M170.296 529.799C168.754 529.769 167.22 529.577 165.719 529.224C165.651 529.206 165.59 529.169 165.544 529.116C165.498 529.063 165.468 528.997 165.459 528.928C165.459 528.859 165.478 528.791 165.514 528.732C165.55 528.673 165.602 528.625 165.663 528.594C166.775 528.057 172.482 525.481 174.002 526.5C174.147 526.603 174.262 526.744 174.334 526.907C174.406 527.07 174.432 527.25 174.409 527.427C174.401 527.739 174.322 528.044 174.178 528.321C174.033 528.597 173.827 528.836 173.575 529.02C172.589 529.613 171.443 529.885 170.296 529.799ZM166.886 528.78C168.739 529.113 171.852 529.484 173.168 528.483C173.346 528.358 173.491 528.191 173.591 527.998C173.691 527.804 173.743 527.589 173.742 527.371C173.753 527.314 173.748 527.254 173.729 527.199C173.709 527.144 173.676 527.094 173.631 527.056C172.797 526.5 169.369 527.686 166.886 528.78Z" fill="#407BFF"/>
<path d="M165.793 529.224C165.728 529.25 165.655 529.25 165.589 529.224C165.538 529.188 165.499 529.136 165.479 529.076C165.459 529.016 165.459 528.951 165.478 528.891C165.478 528.631 166.924 522.572 170.259 522.998C171.13 523.091 171.352 523.536 171.408 523.869C171.63 525.463 167.813 528.502 165.849 529.28L165.793 529.224ZM169.962 523.573C167.961 523.573 166.757 526.815 166.257 528.279C168.109 527.223 170.815 524.814 170.685 523.888C170.685 523.739 170.481 523.628 170.129 523.591L169.962 523.573Z" fill="#407BFF"/>
<path d="M205.651 239.736L204.316 238.958C204.057 238.791 203.927 238.531 204.039 238.383L208.041 232.991C208.152 232.843 208.467 232.843 208.727 232.991L210.079 233.788C210.339 233.936 210.468 234.196 210.357 234.344L206.355 239.736C206.244 239.884 205.929 239.884 205.651 239.736Z" fill="#407BFF"/>
<path d="M245.582 263.102L244.248 262.305C243.988 262.157 243.858 261.897 243.97 261.749L247.972 256.357C248.083 256.209 248.398 256.209 248.658 256.357L250.01 257.135C250.27 257.302 250.399 257.561 250.27 257.71L246.286 263.102C246.175 263.25 245.86 263.25 245.582 263.102Z" fill="#407BFF"/>
<path d="M225.625 251.41L224.273 250.631C224.013 250.483 223.884 250.224 224.013 250.057L227.997 244.683C228.127 244.517 228.423 244.517 228.701 244.683L230.035 245.462C230.313 245.61 230.425 245.869 230.313 246.036L226.311 251.41C226.2 251.576 225.885 251.576 225.625 251.41Z" fill="#407BFF"/>
<path opacity="0.4" d="M205.651 239.736L204.316 238.958C204.057 238.791 203.927 238.531 204.039 238.383L208.041 232.991C208.152 232.843 208.467 232.843 208.727 232.991L210.079 233.788C210.339 233.936 210.468 234.196 210.357 234.344L206.355 239.736C206.244 239.884 205.929 239.884 205.651 239.736Z" fill="black"/>
<path opacity="0.4" d="M245.582 263.102L244.248 262.305C243.988 262.157 243.858 261.897 243.97 261.749L247.972 256.357C248.083 256.209 248.398 256.209 248.658 256.357L250.01 257.135C250.27 257.302 250.399 257.561 250.27 257.71L246.286 263.102C246.175 263.25 245.86 263.25 245.582 263.102Z" fill="black"/>
<path opacity="0.4" d="M225.625 251.41L224.273 250.631C224.013 250.483 223.884 250.224 224.013 250.057L227.997 244.683C228.127 244.517 228.423 244.517 228.701 244.683L230.035 245.462C230.313 245.61 230.425 245.869 230.313 246.036L226.311 251.41C226.2 251.576 225.885 251.576 225.625 251.41Z" fill="black"/>
<path d="M262.703 167.804C262.703 156.686 258.997 112.938 277.23 109.232C282.993 103.154 311.547 102.524 315.92 117.978C321.701 138.268 313.141 187.779 313.141 187.779L262.703 167.804Z" fill="#263238"/>
<path d="M316.939 187.89C316.878 187.883 316.819 187.864 316.766 187.834C316.712 187.804 316.665 187.764 316.627 187.716C316.589 187.668 316.561 187.612 316.545 187.553C316.528 187.494 316.524 187.432 316.532 187.371C316.532 186.871 322.554 137.341 315.902 117.737C314.049 112.363 308.898 108.602 301.263 107.119C291.331 105.174 280.584 107.601 277.601 111.048C277.514 111.133 277.398 111.18 277.277 111.18C277.156 111.18 277.039 111.133 276.952 111.048C276.866 110.958 276.818 110.838 276.818 110.714C276.818 110.59 276.866 110.47 276.952 110.381C280.436 106.341 292.128 104.321 301.504 106.156C309.472 107.694 314.92 111.715 316.847 117.385C323.554 137.23 317.569 186.926 317.514 187.427C317.512 187.497 317.496 187.566 317.465 187.629C317.434 187.692 317.389 187.748 317.335 187.792C317.28 187.836 317.216 187.868 317.148 187.885C317.08 187.902 317.008 187.904 316.939 187.89Z" fill="#263238"/>
<path d="M275.34 140.139C272.542 148.181 266.205 162.245 258.33 164.098C258.33 164.098 256.014 172.585 269.448 180.441C284.271 189.076 280.788 177.235 280.788 177.235C273.858 170.602 277.545 164.746 282.233 159.966L275.34 140.139Z" fill="#E4897B"/>
<path d="M278.12 148.218L282.196 159.948C281.093 161.055 280.083 162.251 279.176 163.524C276.359 161.282 273.339 155.815 274.896 152.406C275.711 150.828 276.803 149.41 278.12 148.218Z" fill="#CE6F64"/>
<path d="M275.452 124.111C271.616 137.582 269.707 143.197 273.988 152.295C280.418 166.007 297.78 167.767 305.488 155.723C312.492 144.883 317.569 124.686 306.526 114.957C304.104 112.803 301.174 111.302 298.011 110.593C294.848 109.885 291.557 109.994 288.448 110.91C285.339 111.826 282.515 113.518 280.241 115.828C277.967 118.138 276.319 120.988 275.452 124.111Z" fill="#E4897B"/>
<path d="M271.504 132.598C281.084 136.174 303.598 124.296 309.731 117.014C310.546 105.785 284.216 110.214 284.216 110.214C284.216 110.214 270.17 105.897 271.504 132.598Z" fill="#263238"/>
<path d="M269.225 135.284C268.602 137.917 269.048 140.689 270.467 142.993C272.32 146.032 275.729 144.846 277.212 141.844C278.546 139.102 279.157 134.191 276.285 132.209C275.646 131.788 274.913 131.533 274.151 131.468C273.389 131.402 272.623 131.528 271.922 131.833C271.22 132.139 270.607 132.614 270.136 133.217C269.665 133.82 269.352 134.53 269.225 135.284Z" fill="#E4897B"/>
<path d="M294.148 134.84C293.759 135.915 294.018 136.989 294.722 137.23C295.426 137.471 296.297 136.804 296.686 135.729C297.076 134.654 296.798 133.598 296.093 133.339C295.389 133.079 294.518 133.765 294.148 134.84Z" fill="#263238"/>
<path d="M306.266 139.12C305.896 140.195 306.155 141.251 306.859 141.51C307.563 141.77 308.434 141.084 308.805 140.01C309.175 138.935 308.916 137.86 308.23 137.619C307.545 137.378 306.655 138.045 306.266 139.12Z" fill="#263238"/>
<path d="M307.897 137.564L310.732 137.731C310.732 137.731 308.694 139.287 307.897 137.564Z" fill="#263238"/>
<path d="M302.412 139.824C302.51 142.605 302.984 145.36 303.82 148.014C303.136 148.215 302.416 148.263 301.712 148.154C301.007 148.045 300.335 147.782 299.744 147.384L302.412 139.824Z" fill="#DE5753"/>
<path d="M294.593 150.312H294.481C293.027 149.839 291.706 149.026 290.63 147.94C289.553 146.854 288.752 145.526 288.292 144.067C288.276 143.979 288.293 143.888 288.341 143.812C288.389 143.736 288.465 143.682 288.552 143.66C288.595 143.649 288.639 143.647 288.683 143.655C288.726 143.662 288.767 143.679 288.804 143.703C288.841 143.728 288.872 143.759 288.895 143.797C288.919 143.834 288.935 143.876 288.941 143.919C289.39 145.26 290.144 146.479 291.144 147.479C292.144 148.479 293.363 149.233 294.704 149.682C294.778 149.708 294.841 149.759 294.881 149.827C294.921 149.895 294.936 149.975 294.923 150.053C294.91 150.131 294.869 150.202 294.809 150.252C294.748 150.303 294.672 150.331 294.593 150.33V150.312Z" fill="#263238"/>
<path d="M293.611 130.597C293.46 130.599 293.314 130.55 293.194 130.458C293.075 130.367 292.99 130.237 292.954 130.091C292.918 129.945 292.931 129.792 292.993 129.655C293.055 129.517 293.162 129.405 293.296 129.337C294.217 128.816 295.248 128.523 296.305 128.481C297.362 128.439 298.414 128.65 299.373 129.096C299.46 129.131 299.538 129.184 299.603 129.252C299.668 129.32 299.717 129.4 299.749 129.488C299.781 129.576 299.793 129.67 299.786 129.763C299.779 129.857 299.752 129.948 299.708 130.03C299.664 130.112 299.602 130.184 299.528 130.242C299.454 130.299 299.369 130.34 299.278 130.362C299.187 130.384 299.092 130.386 299 130.369C298.908 130.352 298.821 130.316 298.743 130.263C297.977 129.923 297.141 129.77 296.303 129.815C295.466 129.86 294.651 130.103 293.926 130.522C293.829 130.573 293.72 130.599 293.611 130.597Z" fill="#263238"/>
<path d="M313.956 135.507C313.81 135.507 313.669 135.457 313.554 135.366C313.44 135.276 313.36 135.149 313.326 135.007C313.14 134.191 312.764 133.431 312.23 132.787C311.696 132.143 311.018 131.634 310.25 131.301C310.083 131.242 309.944 131.12 309.865 130.961C309.785 130.802 309.771 130.618 309.824 130.448C309.851 130.364 309.895 130.286 309.953 130.219C310.011 130.153 310.082 130.099 310.162 130.06C310.242 130.022 310.329 130.001 310.417 129.997C310.506 129.994 310.594 130.009 310.676 130.041C311.657 130.443 312.525 131.076 313.209 131.886C313.893 132.695 314.372 133.658 314.605 134.692C314.627 134.777 314.632 134.866 314.62 134.953C314.608 135.04 314.578 135.124 314.534 135.2C314.489 135.275 314.43 135.342 314.359 135.394C314.289 135.447 314.208 135.485 314.123 135.507H313.956Z" fill="#263238"/>
<path d="M295.723 133.302L298.558 133.469C298.558 133.469 296.575 135.006 295.723 133.302Z" fill="#263238"/>
<path d="M235.687 154.592C229.85 153.203 211.895 166.877 211.895 166.877L219.511 191.17C219.511 191.17 238.281 180.775 240.023 173.122C241.746 165.191 242.339 156.186 235.687 154.592Z" fill="#407BFF"/>
<path opacity="0.7" d="M235.687 154.592C229.85 153.203 211.895 166.877 211.895 166.877L219.511 191.17C219.511 191.17 238.281 180.775 240.023 173.122C241.746 165.191 242.339 156.186 235.687 154.592Z" fill="white"/>
<path d="M449.519 0H312.029C306.132 0 300.476 2.34266 296.306 6.51264C292.136 10.6826 289.793 16.3383 289.793 22.2355V64.8537C289.793 70.7509 292.136 76.4066 296.306 80.5766C300.476 84.7466 306.132 87.0892 312.029 87.0892H323.517V108.954L345.382 87.0892H449.519C455.416 87.0892 461.072 84.7466 465.242 80.5766C469.412 76.4066 471.754 70.7509 471.754 64.8537V22.2355C471.754 16.3383 469.412 10.6826 465.242 6.51264C461.072 2.34266 455.416 0 449.519 0Z" fill="#407BFF"/>
<path opacity="0.3" d="M449.519 0H312.029C306.132 0 300.476 2.34266 296.306 6.51264C292.136 10.6826 289.793 16.3383 289.793 22.2355V64.8537C289.793 70.7509 292.136 76.4066 296.306 80.5766C300.476 84.7466 306.132 87.0892 312.029 87.0892H323.517V108.954L345.382 87.0892H449.519C455.416 87.0892 461.072 84.7466 465.242 80.5766C469.412 76.4066 471.754 70.7509 471.754 64.8537V22.2355C471.754 16.3383 469.412 10.6826 465.242 6.51264C461.072 2.34266 455.416 0 449.519 0Z" fill="black"/>
<g opacity="0.54">
<path opacity="0.54" d="M446.294 17.7146H315.216C312.402 17.7146 310.12 19.996 310.12 22.8102C310.12 25.6245 312.402 27.9059 315.216 27.9059H446.294C449.109 27.9059 451.39 25.6245 451.39 22.8102C451.39 19.996 449.109 17.7146 446.294 17.7146Z" fill="#F5F5F5"/>
</g>
<g opacity="0.54">
<path opacity="0.54" d="M446.276 48.1583H362.263C360.908 48.1534 359.61 47.6131 358.652 46.655C357.694 45.697 357.153 44.399 357.148 43.0441C357.153 41.691 357.694 40.3949 358.653 39.4398C359.611 38.4847 360.909 37.9485 362.263 37.9485H446.276C447.627 37.9485 448.924 38.4854 449.879 39.441C450.835 40.3966 451.372 41.6927 451.372 43.0441C451.372 44.3973 450.835 45.6953 449.88 46.6539C448.925 47.6124 447.629 48.1534 446.276 48.1583Z" fill="#F5F5F5"/>
</g>
<g opacity="0.54">
<path opacity="0.54" d="M337.322 48.1583H315.216C313.863 48.1534 312.567 47.6124 311.612 46.6539C310.656 45.6953 310.12 44.3973 310.12 43.0441C310.12 41.6927 310.657 40.3966 311.613 39.441C312.568 38.4854 313.864 37.9485 315.216 37.9485H337.322C338.673 37.9485 339.969 38.4854 340.925 39.441C341.88 40.3966 342.417 41.6927 342.417 43.0441C342.417 44.3973 341.881 45.6953 340.926 46.6539C339.971 47.6124 338.675 48.1534 337.322 48.1583Z" fill="#F5F5F5"/>
</g>
<g opacity="0.54">
<path opacity="0.54" d="M413.552 68.3929H315.216C313.864 68.3929 312.568 67.8561 311.613 66.9004C310.657 65.9448 310.12 64.6487 310.12 63.2973C310.12 61.9441 310.656 60.6461 311.612 59.6876C312.567 58.729 313.863 58.188 315.216 58.1831H413.552C414.906 58.188 416.202 58.729 417.157 59.6876C418.112 60.6461 418.648 61.9441 418.648 63.2973C418.648 64.6487 418.111 65.9448 417.156 66.9004C416.2 67.8561 414.904 68.3929 413.552 68.3929Z" fill="#F5F5F5"/>
</g>
</svg>
